
<svg xmlns="http://www.w3.org/2000/svg" preserveAspectRatio="none" viewBox="0 0 100 100"><path fill="#333" d="M50.1 100.2C22.5 100.2 0 77.7 0 50.1S22.5 0 50.1 0s50.1 22.5 50.1 50.1c-.1 27.6-22.5 50.1-50.1 50.1zm0-93.8C26 6.4 6.4 26 6.4 50.1S26 93.8 50.1 93.8s43.7-19.6 43.7-43.7S74.2 6.4 50.1 6.4z"/><path fill="#333" d="M55.9 25.3c-2.4-5-3.9-9.8-4.7-12.6v35.5c1.2.5 2.1 1.6 2.1 3 0 1.8-1.5 3.3-3.3 3.3-1.8 0-3.3-1.5-3.3-3.3 0-1.5 1-2.7 2.3-3.1V12.7c-.8 2.8-2.2 7.6-4.7 12.6-3.8 7.8-8.6 14.6-8.6 14.6l3.1 41.8s2.9 3.2 11.3 3.2 11.3-3.2 11.3-3.2l3.1-41.8s-4.8-6.8-8.6-14.6z"/></svg>
