<svg height="400" viewBox="0 0 400 400" width="400" xmlns="http://www.w3.org/2000/svg"><g fill="none" fill-rule="evenodd"><path d="m0 0h400v400h-400z" fill="#41c9b4"/><path d="m180.388501 169.6969v-14.378576c0-2.620272.13567-3.494095.539077-4.838345 1.078155-3.695194 4.71843-6.449531 9.031051-6.449531s7.951695 2.82137 9.02985 6.449531c.404608 1.34425.540278 2.218073.540278 4.838345v22.172358c0 1.344251 0 2.687304-.270139 3.897489-.740781 3.358832-3.773543 6.383695-7.143679 7.122255-1.212624.268132-2.560918.268132-3.909213.268132h-22.239052c-2.628154 0-3.504605-.134066-4.852899-.537461-3.639074-1.074922-6.468932-4.703082-6.468932-9.00277 0-4.300884 2.829858-7.929044 6.468932-9.003966 1.348294-.403395 2.224745-.537461 4.852899-.537461zm79.254013 100.518359h-119.285028v-104.751014c0-1.34425.471843-2.486205 1.415529-3.427061l30.932729-30.84116c.943686-.939658 2.089076-1.410086 3.43737-1.410086h83.4994zm13.546576-164.081193c-.606312-.067033-1.415529-.134066-2.965527-.134066h-97.24888c-1.076955 0-2.15511.067033-2.897092.134066-4.448291.403395-8.424739 2.486206-11.59197 5.643938l-36.190237 36.081703c-3.16603 3.15893-5.256306 7.122255-5.659714 11.557205-.068435.73856-.13567 1.813482-.13567 2.888404v118.458063c0 1.54535.067235 2.35214.13567 2.956633.537877 5.039445 5.120637 9.607264 10.17524 10.144725.607513.06823 1.415529.135263 2.965527.135263h140.447126c1.549998 0 2.359215-.067033 2.965527-.135263 5.054603-.537461 9.637363-5.10528 10.176441-10.144725.066034-.604493.134469-1.411283.134469-2.956633v-161.526758c0-1.54535-.068435-2.35214-.134469-2.956633-.539078-5.039445-5.121838-9.608461-10.176441-10.145922z" fill="#fff"/></g></svg>